<svg version="1.1" xmlns="http://www.w3.org/2000/svg" width="1024" height="1024" viewBox="0 0 1024 1024">
<path fill="currentColor" opacity="0.1" d="M896.341 730.197l-218.453-218.411 218.453-218.453c13.369-13.538 21.626-32.152 21.626-52.693s-8.257-39.155-21.634-52.701l-60.237-60.28c-13.49-13.494-32.127-21.84-52.715-21.84s-39.225 8.346-52.714 21.84l-218.454 218.454-218.453-218.453c-13.492-13.471-32.12-21.801-52.693-21.801s-39.201 8.33-52.694 21.802l-60.33 60.244c-13.496 13.497-21.843 32.141-21.843 52.736s8.347 39.24 21.843 52.736l218.453 218.453-218.453 218.368c-13.496 13.497-21.843 32.141-21.843 52.736s8.347 39.24 21.843 52.736l60.245 60.245c13.501 13.486 32.145 21.826 52.736 21.826s39.235-8.34 52.737-21.826l218.452-218.452 218.411 218.453c13.494 13.483 32.131 21.822 52.715 21.822s39.22-8.339 52.715-21.823l60.245-60.245c13.381-13.541 21.647-32.162 21.647-52.715s-8.266-39.174-21.654-52.722l0.007 0.007z"></path>
<path fill="currentColor" d="M896.64 730.752l-218.667-218.752 218.752-218.709c13.412-13.559 21.697-32.212 21.697-52.8s-8.285-39.241-21.704-52.807l0.007 0.007-60.459-60.373c-13.512-13.514-32.18-21.872-52.8-21.872s-39.288 8.358-52.8 21.872l-218.667 218.752-218.752-218.752c-13.512-13.514-32.18-21.872-52.8-21.872s-39.288 8.358-52.8 21.872v0l-60.331 60.416c-13.514 13.512-21.872 32.18-21.872 52.8s8.358 39.288 21.872 52.8l218.752 218.667-218.752 218.752c-13.514 13.512-21.872 32.18-21.872 52.8s8.358 39.288 21.872 52.8l60.331 60.331c13.517 13.503 32.183 21.854 52.8 21.854s39.283-8.351 52.801-21.855l218.751-218.751 218.709 218.752c13.517 13.503 32.183 21.854 52.8 21.854s39.283-8.351 52.801-21.855l60.373-60.33c13.412-13.559 21.697-32.212 21.697-52.8s-8.285-39.241-21.704-52.807l0.007 0.007zM791.083 851.413c-1.931 1.936-4.602 3.134-7.552 3.134s-5.621-1.198-7.552-3.134v0l-263.979-263.979-263.979 263.979c-1.931 1.936-4.602 3.134-7.552 3.134s-5.621-1.198-7.552-3.134v0l-60.331-60.331c-1.936-1.931-3.134-4.602-3.134-7.552s1.198-5.621 3.134-7.552v0l263.979-263.979-263.979-263.979c-1.936-1.931-3.134-4.602-3.134-7.552s1.198-5.621 3.134-7.552v0l60.331-60.331c1.931-1.936 4.602-3.134 7.552-3.134s5.621 1.198 7.552 3.134v0l263.979 263.979 263.979-263.979c1.931-1.936 4.602-3.134 7.552-3.134s5.621 1.198 7.552 3.134v0l60.331 60.331c1.936 1.931 3.134 4.602 3.134 7.552s-1.198 5.621-3.134 7.552v0l-263.979 263.979 263.979 263.979c1.936 1.931 3.134 4.602 3.134 7.552s-1.198 5.621-3.134 7.552v0l-60.331 60.331z"></path>
</svg>
