<svg version="1.1" xmlns="http://www.w3.org/2000/svg" width="1024" height="1024" viewBox="0 0 1024 1024">
<path fill="currentColor" d="M729.6 81.024c-6.649-7.21-16.143-11.71-26.688-11.71-20.030 0-36.267 16.237-36.267 36.267 0 10.566 4.519 20.077 11.729 26.706l0.026 0.024 130.091 130.091h-680.491c-20.030 0-36.267 16.237-36.267 36.267s16.237 36.267 36.267 36.267h680.448l-130.133 130.091c-6.559 6.564-10.615 15.63-10.615 25.643 0 20.037 16.243 36.279 36.279 36.279 10.024 0 19.098-4.065 25.664-10.636l192-192c6.562-6.563 10.621-15.629 10.621-25.643s-4.059-19.080-10.621-25.643l-192-192zM294.357 507.691c6.631-7.038 16.013-11.421 26.419-11.421 20.030 0 36.267 16.237 36.267 36.267 0 10.417-4.392 19.808-11.424 26.422l-0.019 0.017-130.048 130.091h680.448c20.030 0 36.267 16.237 36.267 36.267s-16.237 36.267-36.267 36.267h-680.448l130.091 130.091c6.386 6.532 10.325 15.478 10.325 25.344 0 20.030-16.237 36.267-36.267 36.267-9.866 0-18.812-3.94-25.351-10.332l-191.993-191.993c-6.562-6.563-10.621-15.629-10.621-25.643s4.059-19.080 10.621-25.643l192-192z"></path>
</svg>
