<svg xmlns="http://www.w3.org/2000/svg" viewBox="0 0 1024 1024">
  <path fill="currentColor" d="M729.6 81.024c-6.649-7.21-16.143-11.71-26.688-11.71-20.03 0-36.267 16.237-36.267 36.267 0 10.566 4.519 20.077 11.729 26.706l.026.024 130.091 130.091H128c-20.03 0-36.267 16.237-36.267 36.267S107.97 334.936 128 334.936h680.448L678.315 465.027c-6.559 6.564-10.615 15.63-10.615 25.643 0 20.037 16.243 36.279 36.279 36.279 10.024 0 19.098-4.065 25.664-10.636l192-192c6.562-6.563 10.621-15.629 10.621-25.643s-4.059-19.08-10.621-25.643l-192-192zM294.357 507.691c6.631-7.038 16.013-11.421 26.419-11.421 20.03 0 36.267 16.237 36.267 36.267 0 10.417-4.392 19.808-11.424 26.422l-.019.017-130.048 130.091H896c20.03 0 36.267 16.237 36.267 36.267S916.03 761.601 896 761.601H215.552l130.091 130.091c6.386 6.532 10.325 15.478 10.325 25.344 0 20.03-16.237 36.267-36.267 36.267-9.866 0-18.812-3.94-25.351-10.332L102.357 750.978c-6.562-6.563-10.621-15.629-10.621-25.643s4.059-19.08 10.621-25.643l192-192z"/>
</svg>
