<svg version="1.1" xmlns="http://www.w3.org/2000/svg" width="1024" height="1024" viewBox="0 0 1024 1024">
<path fill="currentColor" opacity="0.1" d="M959.36 625.92v-232.107c-0.242-141.994-115.286-257.038-257.257-257.28h-389.356c-141.994 0.242-257.038 115.286-257.28 257.257v232.13c0.242 141.994 115.286 257.038 257.257 257.28h390.21c141.994-0.242 257.038-115.286 257.28-257.257v-0.023h-0.853z"></path>
<path fill="currentColor" d="M265.6 700.501c-0.165 0.003-0.36 0.005-0.555 0.005-17.602 0-31.872-14.27-31.872-31.872 0-0.047 0-0.093 0-0.14v0.007-326.955c-0.136-1.115-0.213-2.405-0.213-3.713 0-17.909 14.518-32.427 32.427-32.427s32.427 14.518 32.427 32.427c0 1.309-0.078 2.599-0.228 3.867l0.015-0.153v328.235c-0.706 17.114-14.751 30.72-31.974 30.72-0.009 0-0.018 0-0.027 0h0.001zM425.899 396.544v-54.997c0.149-1.169 0.235-2.522 0.235-3.894 0-17.909-14.518-32.427-32.427-32.427s-32.427 14.518-32.427 32.427c0 1.372 0.085 2.725 0.251 4.053l-0.016-0.159v55.040c2.010 16.155 15.656 28.533 32.192 28.533s30.182-12.378 32.176-28.374l0.016-0.159zM425.899 668.501v-164.096c0.149-1.169 0.235-2.522 0.235-3.894 0-17.909-14.518-32.427-32.427-32.427s-32.427 14.518-32.427 32.427c0 1.372 0.085 2.725 0.251 4.053l-0.016-0.159v164.096c2.010 16.155 15.656 28.533 32.192 28.533s30.182-12.378 32.176-28.374l0.016-0.159zM681.643 659.115v-56.661c-2.010-16.155-15.656-28.533-32.192-28.533s-30.182 12.378-32.176 28.374l-0.016 0.159v56.704c1.926 16.239 15.613 28.713 32.213 28.713s30.287-12.474 32.198-28.56l0.015-0.153zM681.643 495.019v-164.523c-2.010-16.155-15.656-28.533-32.192-28.533s-30.182 12.378-32.176 28.374l-0.016 0.159v164.523c1.926 16.239 15.613 28.713 32.213 28.713s30.287-12.474 32.198-28.56l0.015-0.153zM553.771 668.501v-326.955c0.122-1.056 0.192-2.281 0.192-3.521 0-17.885-14.499-32.384-32.384-32.384s-32.384 14.499-32.384 32.384c0 1.24 0.070 2.465 0.206 3.669l-0.014-0.148v328.235c2.010 16.155 15.656 28.533 32.192 28.533s30.182-12.378 32.176-28.374l0.016-0.159v-1.28zM809.515 668.501v-326.955c0.027-0.493 0.043-1.071 0.043-1.652 0-17.673-14.327-32-32-32s-32 14.327-32 32c0 0.581 0.015 1.158 0.046 1.732l-0.003-0.080v328.235c0.903 16.948 14.865 30.348 31.957 30.348s31.054-13.4 31.954-30.268l0.003-0.080v-1.28zM965.547 629.717v-235.307c-0.242-143.974-116.89-260.622-260.841-260.864h-394.775c-143.974 0.242-260.622 116.89-260.864 260.841v235.33c0.242 143.974 116.89 260.622 260.841 260.864h395.628c143.974-0.242 260.622-116.89 260.864-260.841v-0.023h-0.853zM705.536 197.973c108.406 0.266 196.214 88.075 196.48 196.455v235.332c-0.218 108.434-88.050 196.28-196.457 196.523h-395.628c-108.449-0.218-196.304-88.074-196.523-196.501v-235.37c0.291-108.402 88.114-196.195 196.5-196.437h395.628z"></path>
</svg>
