<svg xmlns="http://www.w3.org/2000/svg" viewBox="0 0 1024 1024">
  <path fill="currentColor" d="M959.36 625.92V393.813c-.242-141.994-115.286-257.038-257.257-257.28H312.747c-141.994.242-257.038 115.286-257.28 257.257v232.13c.242 141.994 115.286 257.038 257.257 257.28h390.21c141.994-.242 257.038-115.286 257.28-257.257v-.023h-.853z" opacity=".1"/>
  <path fill="currentColor" d="M265.6 700.501c-.165.003-.36.005-.555.005-17.602 0-31.872-14.27-31.872-31.872v-.14.007-326.955a31.385 31.385 0 0 1-.213-3.713c0-17.909 14.518-32.427 32.427-32.427s32.427 14.518 32.427 32.427c0 1.309-.078 2.599-.228 3.867l.015-.153v328.235c-.706 17.114-14.751 30.72-31.974 30.72h-.027.001zm160.299-303.957v-54.997c.149-1.169.235-2.522.235-3.894 0-17.909-14.518-32.427-32.427-32.427s-32.427 14.518-32.427 32.427c0 1.372.085 2.725.251 4.053l-.016-.159v55.04c2.01 16.155 15.656 28.533 32.192 28.533s30.182-12.378 32.176-28.374l.016-.159zm0 271.957V504.405c.149-1.169.235-2.522.235-3.894 0-17.909-14.518-32.427-32.427-32.427s-32.427 14.518-32.427 32.427c0 1.372.085 2.725.251 4.053l-.016-.159v164.096c2.01 16.155 15.656 28.533 32.192 28.533s30.182-12.378 32.176-28.374l.016-.159zm255.744-9.386v-56.661c-2.01-16.155-15.656-28.533-32.192-28.533s-30.182 12.378-32.176 28.374l-.016.159v56.704c1.926 16.239 15.613 28.713 32.213 28.713s30.287-12.474 32.198-28.56l.015-.153zm0-164.096V330.496c-2.01-16.155-15.656-28.533-32.192-28.533s-30.182 12.378-32.176 28.374l-.016.159v164.523c1.926 16.239 15.613 28.713 32.213 28.713s30.287-12.474 32.198-28.56l.015-.153zM553.771 668.501V341.546c.122-1.056.192-2.281.192-3.521 0-17.885-14.499-32.384-32.384-32.384s-32.384 14.499-32.384 32.384c0 1.24.07 2.465.206 3.669l-.014-.148v328.235c2.01 16.155 15.656 28.533 32.192 28.533s30.182-12.378 32.176-28.374l.016-.159v-1.28zm255.744 0V341.546c.027-.493.043-1.071.043-1.652 0-17.673-14.327-32-32-32s-32 14.327-32 32c0 .581.015 1.158.046 1.732l-.003-.08v328.235c.903 16.948 14.865 30.348 31.957 30.348s31.054-13.4 31.954-30.268l.003-.08v-1.28zm156.032-38.784V394.41c-.242-143.974-116.89-260.622-260.841-260.864H309.931c-143.974.242-260.622 116.89-260.864 260.841v235.33c.242 143.974 116.89 260.622 260.841 260.864h395.628c143.974-.242 260.622-116.89 260.864-260.841v-.023h-.853zM705.536 197.973c108.406.266 196.214 88.075 196.48 196.455V629.76c-.218 108.434-88.05 196.28-196.457 196.523H309.931c-108.449-.218-196.304-88.074-196.523-196.501v-235.37c.291-108.402 88.114-196.195 196.5-196.437h395.628z"/>
</svg>
