<svg xmlns="http://www.w3.org/2000/svg" viewBox="0 0 1024 1024">
  <path fill="currentColor" d="M680.875 124.587h14.208l61.781 9.771c58.584 17.178 107.603 51.659 142.53 97.465l.489.668c34.372 45.04 55.108 102.094 55.211 163.987v320.621c-.284 75.207-30.922 143.203-80.292 192.42l-.007.007c-49.483 49.354-117.663 79.983-192.998 80.341H340.761c-75.544 0-143.98-30.439-193.709-79.722l.02.02c-49.755-49.29-80.65-117.542-80.939-193.012V396.501c.096-61.931 20.832-119.001 55.696-164.717l-.486.664c35.426-46.441 84.444-80.893 141.079-97.559l1.94-.489 61.781-10.667h161.792l62.251.939h130.688z" opacity=".1"/>
  <path fill="currentColor" d="M760.192 129.707V63.275c-1.878-15.571-15.011-27.521-30.935-27.521l-.223.001h.011c-15.961.028-29.131 11.942-31.13 27.362l-.017.158v56.704H551.893V63.146c0-17.202-13.945-31.147-31.147-31.147l-.27.001h.014c-17.265.024-31.263 13.977-31.36 31.223v55.817H326.101V63.232c-1.898-15.574-15.04-27.52-30.973-27.52l-.183.001h.009c-15.961.028-29.131 11.942-31.13 27.362l-.017.158v66.517c-59.05 17.297-108.464 52.034-143.679 98.187l-.492.672C84.991 274.014 64.095 331.528 63.999 393.92v323.138c.273 76.141 31.416 144.955 81.557 194.624l.022.021c50.106 49.633 119.074 80.299 195.205 80.299l.58-.001h343.138c75.982-.365 144.687-31.219 194.567-80.946l-.007.007c49.781-49.626 80.665-118.183 80.939-193.953V393.942c-.096-62.414-20.993-119.929-56.127-166.003l.49.669c-35.709-46.823-85.122-81.559-142.215-98.365l-1.955-.493zm-496.384 65.664v36.181c1.898 15.574 15.04 27.52 30.973 27.52l.183-.001h-.009c15.961-.028 29.131-11.942 31.13-27.362l.017-.158v-49.067h162.987v49.153c0 17.202 13.945 31.147 31.147 31.147l.27-.001h-.014c17.265-.024 31.263-13.977 31.36-31.223v-50.484H697.9v49.067c1.898 15.574 15.04 27.52 30.973 27.52l.183-.001h-.009c15.943-.05 29.09-11.957 31.087-27.362l.017-.158v-34.816c35.2 13.653 66.176 36.309 89.771 65.707s38.997 64.427 44.629 101.675H128.514c6.148-39.133 22.129-73.736 45.321-102.236l-.308.39c23.538-28.951 53.964-51.419 88.823-65.034l1.46-.502zm419.755 734.634H340.438l-.489.001c-58.953 0-112.365-23.723-151.211-62.143l.02.019c-38.908-38.478-63.087-91.781-63.36-150.732V422.954h773.248v292.352l.002.972c0 58.969-23.959 112.341-62.673 150.915l-.006.006c-38.828 38.781-92.443 62.764-151.659 62.764l-.696-.001h.036zm-279.51-335.658c.016.41.024.891.024 1.375 0 15.738-9.384 29.284-22.862 35.348l-.245.098c-4.64 2.095-10.059 3.316-15.764 3.316-18.626 0-34.211-13.015-38.159-30.446l-.05-.262c-.548-2.442-.863-5.247-.863-8.126 0-13.342 6.752-25.107 17.025-32.065l.136-.087c6.114-4.163 13.662-6.647 21.791-6.647 21.018 0 38.157 16.609 39.007 37.418l.003.077zm146.091 0c.027.54.042 1.174.042 1.811 0 15.935-9.516 29.647-23.175 35.765l-.248.099c-4.704 2.13-10.2 3.37-15.986 3.37-10.81 0-20.608-4.332-27.753-11.355l.006.006c-7.235-7.125-11.717-17.026-11.717-27.974 0-21.679 17.574-39.253 39.253-39.253.519 0 1.036.01 1.551.03l-.074-.002c20.633.496 37.272 16.926 38.099 37.428l.002.076zm146.944 0c.007.267.01.581.01.896 0 16.103-9.717 29.936-23.607 35.955l-.254.098c-4.574 2.002-9.904 3.166-15.506 3.166-18.992 0-34.857-13.386-38.677-31.238l-.046-.259c-.494-2.332-.777-5.012-.777-7.758 0-13.661 7.001-25.687 17.611-32.685l.147-.091c6.114-4.066 13.627-6.487 21.705-6.487l.418.002h-.021c21.311.045 38.614 17.139 38.997 38.364l.001.036zm-293.461 144.17c-.173 15.9-10.025 29.455-23.935 35.066l-.257.091c-4.222 1.728-9.121 2.731-14.255 2.731-21.302 0-38.571-17.269-38.571-38.571 0-2.718.281-5.371.816-7.931l-.044.251c3.275-15.244 15.267-26.979 30.396-29.829l.238-.037c2.121-.413 4.56-.649 7.055-.649 13.461 0 25.315 6.881 32.237 17.317l.089.143c4.139 6.4 6.315 13.824 6.229 21.419zm146.048 0c.007.27.011.589.011.908 0 16.054-9.658 29.852-23.481 35.9l-.252.098c-4.6 2.028-9.964 3.208-15.603 3.208-18.899 0-34.703-13.256-38.62-30.977l-.049-.263c-.528-2.41-.83-5.179-.83-8.018 0-13.522 6.859-25.442 17.288-32.469l.139-.088c6.169-4.189 13.778-6.691 21.971-6.699h.002c.241-.005.526-.009.811-.009 21.254 0 38.497 17.171 38.613 38.397v.011zm146.944 0c.007.27.011.589.011.908 0 16.054-9.658 29.852-23.481 35.9l-.252.098c-4.6 2.028-9.964 3.208-15.603 3.208-18.899 0-34.703-13.256-38.62-30.977l-.049-.263c-.528-2.41-.83-5.179-.83-8.018 0-13.522 6.859-25.442 17.288-32.469l.139-.088c6.169-4.189 13.778-6.691 21.971-6.699h.002c.241-.005.526-.009.811-.009 21.254 0 38.497 17.171 38.613 38.397v.011z"/>
</svg>
