<svg version="1.1" xmlns="http://www.w3.org/2000/svg" width="1024" height="1024" viewBox="0 0 1024 1024">
<path fill="currentColor" opacity="0.1" d="M680.875 124.587h14.208l61.781 9.771c58.584 17.178 107.603 51.659 142.53 97.465l0.489 0.668c34.372 45.040 55.108 102.094 55.211 163.987v320.621c-0.284 75.207-30.922 143.203-80.292 192.42l-0.007 0.007c-49.483 49.354-117.663 79.983-192.998 80.341h-340.549c-0.144 0-0.316 0-0.487 0-75.544 0-143.98-30.439-193.709-79.722l0.020 0.020c-49.755-49.29-80.65-117.542-80.939-193.012v-320.652c0.096-61.931 20.832-119.001 55.696-164.717l-0.486 0.664c35.426-46.441 84.444-80.893 141.079-97.559l1.94-0.489 61.781-10.667h161.792l62.251 0.939h130.688z"></path>
<path fill="currentColor" d="M760.192 129.707v-66.432c-1.878-15.571-15.011-27.521-30.935-27.521-0.074 0-0.149 0-0.223 0.001h0.011c-15.961 0.028-29.131 11.942-31.13 27.362l-0.017 0.158v56.704h-146.005v-56.747c0-0.026 0-0.056 0-0.086 0-17.202-13.945-31.147-31.147-31.147-0.090 0-0.18 0-0.27 0.001h0.014c-17.265 0.024-31.263 13.977-31.36 31.223v55.817h-163.029v-55.808c-1.898-15.574-15.040-27.52-30.973-27.52-0.061 0-0.122 0-0.183 0.001h0.009c-15.961 0.028-29.131 11.942-31.13 27.362l-0.017 0.158v66.517c-59.050 17.297-108.464 52.034-143.679 98.187l-0.492 0.672c-34.645 45.405-55.541 102.919-55.637 165.311v323.138c0.273 76.141 31.416 144.955 81.557 194.624l0.022 0.021c50.106 49.633 119.074 80.299 195.205 80.299 0.193 0 0.386 0 0.58-0.001h343.138c75.982-0.365 144.687-31.219 194.567-80.946l-0.007 0.007c49.781-49.626 80.665-118.183 80.939-193.953v-323.167c-0.096-62.414-20.993-119.929-56.127-166.003l0.49 0.669c-35.709-46.823-85.122-81.559-142.215-98.365l-1.955-0.493zM263.808 195.371v36.181c1.898 15.574 15.040 27.52 30.973 27.52 0.061 0 0.122 0 0.183-0.001h-0.009c15.961-0.028 29.131-11.942 31.13-27.362l0.017-0.158v-49.067h162.987v49.067c0 0.026 0 0.056 0 0.086 0 17.202 13.945 31.147 31.147 31.147 0.090 0 0.18 0 0.27-0.001h-0.014c17.265-0.024 31.263-13.977 31.36-31.223v-50.484h146.048v49.067c1.898 15.574 15.040 27.52 30.973 27.52 0.061 0 0.122 0 0.183-0.001h-0.009c15.943-0.050 29.090-11.957 31.087-27.362l0.017-0.158v-34.816c35.2 13.653 66.176 36.309 89.771 65.707s38.997 64.427 44.629 101.675h-766.037c6.148-39.133 22.129-73.736 45.321-102.236l-0.308 0.39c23.538-28.951 53.964-51.419 88.823-65.034l1.46-0.502zM683.563 930.005h-343.125c-0.145 0-0.317 0.001-0.489 0.001-58.953 0-112.365-23.723-151.211-62.143l0.020 0.019c-38.908-38.478-63.087-91.781-63.36-150.732v-294.196h773.248v292.352c0.001 0.289 0.002 0.631 0.002 0.972 0 58.969-23.959 112.341-62.673 150.915l-0.006 0.006c-38.828 38.781-92.443 62.764-151.659 62.764-0.232 0-0.464 0-0.696-0.001h0.036zM404.053 594.347c0.016 0.41 0.024 0.891 0.024 1.375 0 15.738-9.384 29.284-22.862 35.348l-0.245 0.098c-4.64 2.095-10.059 3.316-15.764 3.316-18.626 0-34.211-13.015-38.159-30.446l-0.050-0.262c-0.548-2.442-0.863-5.247-0.863-8.126 0-13.342 6.752-25.107 17.025-32.065l0.136-0.087c6.114-4.163 13.662-6.647 21.791-6.647 21.018 0 38.157 16.609 39.007 37.418l0.003 0.077zM550.144 594.347c0.027 0.54 0.042 1.174 0.042 1.811 0 15.935-9.516 29.647-23.175 35.765l-0.248 0.099c-4.704 2.13-10.2 3.37-15.986 3.37-10.81 0-20.608-4.332-27.753-11.355l0.006 0.006c-7.235-7.125-11.717-17.026-11.717-27.974 0-21.679 17.574-39.253 39.253-39.253 0.519 0 1.036 0.010 1.551 0.030l-0.074-0.002c20.633 0.496 37.272 16.926 38.099 37.428l0.002 0.076zM697.088 594.347c0.007 0.267 0.010 0.581 0.010 0.896 0 16.103-9.717 29.936-23.607 35.955l-0.254 0.098c-4.574 2.002-9.904 3.166-15.506 3.166-18.992 0-34.857-13.386-38.677-31.238l-0.046-0.259c-0.494-2.332-0.777-5.012-0.777-7.758 0-13.661 7.001-25.687 17.611-32.685l0.147-0.091c6.114-4.066 13.627-6.487 21.705-6.487 0.14 0 0.279 0.001 0.418 0.002h-0.021c21.311 0.045 38.614 17.139 38.997 38.364l0.001 0.036zM403.627 738.517c-0.173 15.9-10.025 29.455-23.935 35.066l-0.257 0.091c-4.222 1.728-9.121 2.731-14.255 2.731-21.302 0-38.571-17.269-38.571-38.571 0-2.718 0.281-5.371 0.816-7.931l-0.044 0.251c3.275-15.244 15.267-26.979 30.396-29.829l0.238-0.037c2.121-0.413 4.56-0.649 7.055-0.649 13.461 0 25.315 6.881 32.237 17.317l0.089 0.143c4.139 6.4 6.315 13.824 6.229 21.419zM549.675 738.517c0.007 0.27 0.011 0.589 0.011 0.908 0 16.054-9.658 29.852-23.481 35.9l-0.252 0.098c-4.6 2.028-9.964 3.208-15.603 3.208-18.899 0-34.703-13.256-38.62-30.977l-0.049-0.263c-0.528-2.41-0.83-5.179-0.83-8.018 0-13.522 6.859-25.442 17.288-32.469l0.139-0.088c6.169-4.189 13.778-6.691 21.971-6.699h0.002c0.241-0.005 0.526-0.009 0.811-0.009 21.254 0 38.497 17.171 38.613 38.397v0.011zM696.619 738.517c0.007 0.27 0.011 0.589 0.011 0.908 0 16.054-9.658 29.852-23.481 35.9l-0.252 0.098c-4.6 2.028-9.964 3.208-15.603 3.208-18.899 0-34.703-13.256-38.62-30.977l-0.049-0.263c-0.528-2.41-0.83-5.179-0.83-8.018 0-13.522 6.859-25.442 17.288-32.469l0.139-0.088c6.169-4.189 13.778-6.691 21.971-6.699h0.002c0.241-0.005 0.526-0.009 0.811-0.009 21.254 0 38.497 17.171 38.613 38.397v0.011z"></path>
</svg>
