<svg xmlns="http://www.w3.org/2000/svg" viewBox="0 0 1024 1024">
  <path fill="currentColor" d="M524.928 977.067H238.379c-105.635-.242-191.203-85.811-191.445-191.422V499.073c0-105.818 85.661-191.629 191.422-191.871h286.572c105.968 0 191.872 85.904 191.872 191.872v286.549c-.243 105.784-86.054 191.445-191.872 191.445z" opacity=".1"/>
  <path fill="currentColor" d="m832.427 712.32-.331.002c-14.732 0-27.157-9.876-31.016-23.369l-.056-.228c-.832-2.751-1.31-5.913-1.31-9.186 0-14.84 9.839-27.382 23.35-31.458l.233-.06c53.906-15.868 92.587-64.903 92.587-122.972v-.353.018-290.048c0-33.963-13.525-66.56-37.504-90.581-23.131-23.19-55.116-37.54-90.452-37.547H498.476c-52.53.269-97.563 32.086-117.142 77.461l-.319.832c-4.92 12.33-16.758 20.884-30.595 20.884a32.742 32.742 0 0 1-22.541-8.952l.016.015c-6.275-5.994-10.176-14.427-10.176-23.771 0-4.248.806-8.309 2.275-12.036l-.077.223c30.132-70.23 98.687-118.528 178.523-118.528h289.487c53.382.135 101.666 21.847 136.615 56.871l.003.003c34.991 35.063 56.666 83.426 56.789 136.851V526.42c-.182 44.025-14.869 84.584-39.524 117.185l.356-.492c-24.98 33.054-59.581 57.654-99.61 69.743l-1.382.359a30.9 30.9 0 0 1-8.917-.898l.213.045zM719.36 787.584V497.5c0-53.585-21.682-102.107-56.751-137.27l.004.004c-35.06-35.136-83.535-56.873-137.088-56.875H236.074c-53.467.135-101.82 21.916-136.782 57.038l-.007.007c-34.988 35.146-56.619 83.615-56.619 137.137v.039-.002 289.963C42.765 841 64.428 889.38 99.417 924.462l-.004-.004c36.267 36.267 85.419 56.747 136.661 56.875h289.451c53.488-.006 101.91-21.691 136.96-56.746 35.061-35.091 56.776-83.523 56.875-137.027v-.019zM525.525 368.981a128.059 128.059 0 0 1 90.752 37.675 128.495 128.495 0 0 1 37.632 90.88v290.048c-.13 35.409-14.536 67.429-37.759 90.623l-.001.001c-23.194 23.191-55.233 37.538-90.622 37.547H236.075c-35.338-.007-67.322-14.356-90.451-37.544l-.003-.003c-23.148-23.206-37.461-55.233-37.461-90.604v-.021.001-290.005c0-34.048 13.44-66.688 37.419-90.795 23.134-23.252 55.118-37.68 90.473-37.803h289.474zm23.168 162.262c-5.923-5.926-14.107-9.591-23.147-9.591s-17.224 3.665-23.147 9.591L363.946 664.235l-54.144-55.552c-5.21-3.659-11.684-5.848-18.67-5.848-18.074 0-32.725 14.652-32.725 32.725a32.57 32.57 0 0 0 4.757 17l-.082-.144 76.843 78.72c5.968 5.825 14.138 9.418 23.147 9.418s17.178-3.593 23.153-9.425l-.007.006 161.536-156.16a32.72 32.72 0 0 0 8.769-22.345 32.723 32.723 0 0 0-7.952-21.431l.036.043z"/>
</svg>
