<svg version="1.1" xmlns="http://www.w3.org/2000/svg" width="1024" height="1024" viewBox="0 0 1024 1024">
<path fill="currentColor" opacity="0.1" d="M524.928 979.2h-286.549c-105.625-0.266-191.179-85.82-191.445-191.42v-286.575c0 0 0 0 0 0 0-105.818 85.661-191.629 191.422-191.871h286.572c105.968 0 191.872 85.904 191.872 191.872v0 286.549c-0.267 105.775-86.063 191.421-191.87 191.445h-0.002z"></path>
<path fill="currentColor" d="M525.525 981.333h-289.451c-106.719-0.242-193.166-86.689-193.408-193.385v-289.474c0 0 0 0 0 0 0-106.902 86.54-193.591 193.385-193.834h289.474c107.052 0 193.835 86.783 193.835 193.835v0 289.451c-0.243 106.868-86.932 193.408-193.834 193.408 0 0 0 0 0 0v0zM236.075 370.091c-70.697 0.243-127.915 57.61-127.915 128.341 0 0.015 0 0.031 0 0.046v-0.002 289.451c0 70.645 57.269 127.915 127.915 127.915v0h289.451c0 0 0 0 0.001 0 70.731 0 128.098-57.217 128.341-127.891v-289.474c0-0.013 0-0.028 0-0.043 0-70.881-57.46-128.341-128.341-128.341 0 0 0 0 0 0h-289.45zM841.6 711.509c81.345-24.195 139.664-98.27 139.733-185.976v-289.459c-0.242-106.719-86.689-193.166-193.385-193.408h-289.474c-0.313-0.002-0.684-0.003-1.055-0.003-84.391 0-156.131 54.17-182.344 129.635l-0.409 1.355c-1.682 3.813-2.661 8.259-2.661 12.934 0 18.097 14.671 32.768 32.768 32.768 15.42 0 28.352-10.651 31.841-24.998l0.046-0.224c17.508-51.166 65.182-87.297 121.295-87.297 0.182 0 0.365 0 0.547 0.001h289.423c70.645 0 127.915 57.269 127.915 127.915v0 289.493c-0.976 57.773-39.206 106.361-91.659 122.842l-0.928 0.251c-13.307 4.37-22.745 16.682-22.745 31.198 0 18.097 14.671 32.768 32.768 32.768 2.959 0 5.827-0.392 8.553-1.128l-0.229 0.053v1.28z"></path>
</svg>
