<svg xmlns="http://www.w3.org/2000/svg" viewBox="0 0 1024 1024">
  <path fill="currentColor" d="M524.928 979.2H238.379C132.754 978.934 47.2 893.38 46.934 787.78V501.205c0-105.818 85.661-191.629 191.422-191.871h286.572c105.968 0 191.872 85.904 191.872 191.872v286.549c-.267 105.775-86.063 191.421-191.87 191.445h-.002z" opacity=".1"/>
  <path fill="currentColor" d="M525.525 981.333H236.074c-106.719-.242-193.166-86.689-193.408-193.385V498.474c0-106.902 86.54-193.591 193.385-193.834h289.474c107.052 0 193.835 86.783 193.835 193.835v289.451c-.243 106.868-86.932 193.408-193.834 193.408zm-289.45-611.242c-70.697.243-127.915 57.61-127.915 128.341v.046-.002 289.451c0 70.645 57.269 127.915 127.915 127.915h289.452c70.731 0 128.098-57.217 128.341-127.891V498.434c0-70.881-57.46-128.341-128.341-128.341h-289.45zM841.6 711.509c81.345-24.195 139.664-98.27 139.733-185.976V236.074c-.242-106.719-86.689-193.166-193.385-193.408H498.474c-.313-.002-.684-.003-1.055-.003-84.391 0-156.131 54.17-182.344 129.635l-.409 1.355c-1.682 3.813-2.661 8.259-2.661 12.934 0 18.097 14.671 32.768 32.768 32.768 15.42 0 28.352-10.651 31.841-24.998l.046-.224c17.508-51.166 65.182-87.297 121.295-87.297l.547.001h289.423c70.645 0 127.915 57.269 127.915 127.915v289.493c-.976 57.773-39.206 106.361-91.659 122.842l-.928.251c-13.307 4.37-22.745 16.682-22.745 31.198 0 18.097 14.671 32.768 32.768 32.768 2.959 0 5.827-.392 8.553-1.128l-.229.053v1.28z"/>
</svg>
