<svg version="1.1" xmlns="http://www.w3.org/2000/svg" width="1024" height="1024" viewBox="0 0 1024 1024">
<path fill="currentColor" opacity="0.1" d="M524.928 977.067h-286.549c-105.635-0.242-191.203-85.811-191.445-191.422v-286.572c0 0 0 0 0 0 0-105.818 85.661-191.629 191.422-191.871h286.572c105.968 0 191.872 85.904 191.872 191.872v0 286.549c-0.243 105.784-86.054 191.445-191.872 191.445 0 0 0 0 0 0v0z"></path>
<path fill="currentColor" d="M832.427 712.32c-0.098 0.001-0.215 0.002-0.331 0.002-14.732 0-27.157-9.876-31.016-23.369l-0.056-0.228c-0.832-2.751-1.31-5.913-1.31-9.186 0-14.84 9.839-27.382 23.35-31.458l0.233-0.060c53.906-15.868 92.587-64.903 92.587-122.972 0-0.118 0-0.236 0-0.353v0.018-290.048c0-33.963-13.525-66.56-37.504-90.581-23.131-23.19-55.116-37.54-90.452-37.547h-289.452c-52.53 0.269-97.563 32.086-117.142 77.461l-0.319 0.832c-4.92 12.33-16.758 20.884-30.595 20.884-8.726 0-16.658-3.402-22.541-8.952l0.016 0.015c-6.275-5.994-10.176-14.427-10.176-23.771 0-4.248 0.806-8.309 2.275-12.036l-0.077 0.223c30.132-70.23 98.687-118.528 178.523-118.528 0.013 0 0.026 0 0.039 0h289.448c53.382 0.135 101.666 21.847 136.615 56.871l0.003 0.003c34.991 35.063 56.666 83.426 56.789 136.851v290.029c-0.182 44.025-14.869 84.584-39.524 117.185l0.356-0.492c-24.98 33.054-59.581 57.654-99.61 69.743l-1.382 0.359c-0.41 0.019-0.89 0.031-1.373 0.031-2.603 0-5.13-0.322-7.544-0.929l0.213 0.045zM719.36 787.584v-290.005c0-0.024 0-0.051 0-0.079 0-53.585-21.682-102.107-56.751-137.27l0.004 0.004c-35.060-35.136-83.535-56.873-137.088-56.875h-289.451c-53.467 0.135-101.82 21.916-136.782 57.038l-0.007 0.007c-34.988 35.146-56.619 83.615-56.619 137.137 0 0.013 0 0.026 0 0.039v-0.002 289.963c0.099 53.459 21.762 101.839 56.751 136.921l-0.004-0.004c36.267 36.267 85.419 56.747 136.661 56.875h289.451c53.488-0.006 101.91-21.691 136.96-56.746v0c35.061-35.091 56.776-83.523 56.875-137.027v-0.019zM525.525 368.981c34.048 0 66.688 13.525 90.752 37.675 24.107 24.107 37.632 56.789 37.632 90.88v290.048c-0.13 35.409-14.536 67.429-37.759 90.623l-0.001 0.001c-23.194 23.191-55.233 37.538-90.622 37.547h-289.452c-35.338-0.007-67.322-14.356-90.451-37.544l-0.003-0.003c-23.148-23.206-37.461-55.233-37.461-90.604 0-0.007 0-0.014 0-0.021v0.001-290.005c0-34.048 13.44-66.688 37.419-90.795 23.134-23.252 55.118-37.68 90.473-37.803h289.474zM548.693 531.243c-5.923-5.926-14.107-9.591-23.147-9.591s-17.224 3.665-23.147 9.591v0l-138.453 132.992-54.144-55.552c-5.21-3.659-11.684-5.848-18.67-5.848-18.074 0-32.725 14.652-32.725 32.725 0 6.226 1.739 12.046 4.757 17l-0.082-0.144 76.843 78.72c5.968 5.825 14.138 9.418 23.147 9.418s17.178-3.593 23.153-9.425l-0.007 0.006 161.536-156.16c5.434-5.844 8.769-13.705 8.769-22.345 0-8.189-2.996-15.678-7.952-21.431l0.036 0.043z"></path>
</svg>
