<svg version="1.1" xmlns="http://www.w3.org/2000/svg" width="1024" height="1024" viewBox="0 0 1024 1024">
<path fill="currentColor" d="M893.269 305.109c9.586 9.114 15.549 21.962 15.549 36.203s-5.963 27.088-15.528 36.183l-0.021 0.020-353.579 341.333c-9.739 9.283-22.955 14.994-37.504 14.994s-27.765-5.712-37.526-15.015l0.022 0.021-333.952-322.347c-9.586-9.114-15.549-21.962-15.549-36.203s5.963-27.088 15.528-36.183l0.021-0.020c9.739-9.283 22.955-14.994 37.504-14.994s27.765 5.712 37.526 15.015l-0.022-0.021 296.448 286.165 316.075-305.152c9.739-9.283 22.955-14.994 37.504-14.994s27.765 5.712 37.526 15.015l-0.022-0.021z"></path>
</svg>
