<svg xmlns="http://www.w3.org/2000/svg" viewBox="0 0 1024 1024">
  <path fill="currentColor" d="M893.269 305.109c9.586 9.114 15.549 21.962 15.549 36.203s-5.963 27.088-15.528 36.183l-.021.02L539.69 718.848c-9.739 9.283-22.955 14.994-37.504 14.994s-27.765-5.712-37.526-15.015l.022.021L130.73 396.501c-9.586-9.114-15.549-21.962-15.549-36.203s5.963-27.088 15.528-36.183l.021-.02c9.739-9.283 22.955-14.994 37.504-14.994s27.765 5.712 37.526 15.015l-.022-.021L502.186 610.26l316.075-305.152c9.739-9.283 22.955-14.994 37.504-14.994s27.765 5.712 37.526 15.015l-.022-.021z"/>
</svg>
