<svg xmlns="http://www.w3.org/2000/svg" viewBox="0 0 1024 1024">
  <path fill="currentColor" d="M964.693 772.395V572.886c.006-.55.009-1.201.009-1.852 0-105.436-83.375-191.399-187.791-195.555l-.377-.012-63.147.427H311.04l-63.147.853c-104.836 4.401-188.16 90.458-188.16 195.976v.171-.009 199.509c0 108.324 87.814 196.139 196.139 196.139h512.683c108.324 0 196.139-87.814 196.139-196.139z" opacity=".1"/>
  <path fill="currentColor" d="M384 655.36c0 23.564-19.103 42.667-42.667 42.667s-42.667-19.103-42.667-42.667 19.103-42.667 42.667-42.667S384 631.796 384 655.36zm128-42.667c-23.564 0-42.667 19.103-42.667 42.667s19.103 42.667 42.667 42.667 42.667-19.103 42.667-42.667c-.241-23.38-19.25-42.24-42.665-42.24H512v-.427zm170.667 0c-23.564 0-42.667 19.103-42.667 42.667s19.103 42.667 42.667 42.667 42.667-19.103 42.667-42.667-19.103-42.667-42.667-42.667zm288-42.666v202.24c0 109.809-89.018 198.827-198.827 198.827H252.16c-109.809 0-198.827-89.018-198.827-198.827v-202.24c.381-106.664 84.694-193.513 190.317-197.96l.403-.013v-55.467c.484-127.673 103.974-231.012 231.657-231.253h72.556c127.856.242 231.437 103.824 231.68 231.656v55.491c105.878 4.453 190.104 91.064 190.72 197.486v.06zm-662.614-253.44V371.2h407.893v-54.613c0-92.607-75.073-167.68-167.68-167.68h-72.533c-92.607 0-167.68 75.073-167.68 167.68zm597.334 253.44c-.242-74.365-60.461-134.585-134.804-134.827H252.16c-74.365.242-134.585 60.461-134.827 134.804v202.263c.242 74.365 60.461 134.585 134.804 134.827H771.84c74.365-.242 134.585-60.461 134.827-134.804v-.023l-1.28-202.24z"/>
</svg>
