<svg version="1.1" xmlns="http://www.w3.org/2000/svg" width="1024" height="1024" viewBox="0 0 1024 1024">
<path fill="currentColor" opacity="0.1" d="M964.693 772.395v-199.509c0.006-0.55 0.009-1.201 0.009-1.852 0-105.436-83.375-191.399-187.791-195.555l-0.377-0.012-63.147 0.427h-402.347l-63.147 0.853c-104.836 4.401-188.16 90.458-188.16 195.976 0 0.057 0 0.114 0 0.171v-0.009 199.509c0 108.324 87.814 196.139 196.139 196.139v0h512.683c108.324 0 196.139-87.814 196.139-196.139v0z"></path>
<path fill="currentColor" d="M384 655.36c0 23.564-19.103 42.667-42.667 42.667s-42.667-19.103-42.667-42.667v0c0-23.564 19.103-42.667 42.667-42.667s42.667 19.103 42.667 42.667v0zM512 612.693c-23.564 0-42.667 19.103-42.667 42.667s19.103 42.667 42.667 42.667c23.564 0 42.667-19.103 42.667-42.667v0c-0.241-23.38-19.25-42.24-42.665-42.24-0.001 0-0.002 0-0.002 0v0-0.427zM682.667 612.693c-23.564 0-42.667 19.103-42.667 42.667s19.103 42.667 42.667 42.667v0c23.564 0 42.667-19.103 42.667-42.667s-19.103-42.667-42.667-42.667v0zM970.667 570.027v202.24c0 109.809-89.018 198.827-198.827 198.827h-519.68c-109.809 0-198.827-89.018-198.827-198.827v0-202.24c0.381-106.664 84.694-193.513 190.317-197.96l0.403-0.013v-55.467c0.484-127.673 103.974-231.012 231.657-231.253h72.556c127.856 0.242 231.437 103.824 231.68 231.656v55.491c105.878 4.453 190.104 91.064 190.72 197.486v0.060zM308.053 316.587v54.613h407.893v-54.613c0-92.607-75.073-167.68-167.68-167.68v0h-72.533c-92.607 0-167.68 75.073-167.68 167.68v0zM905.387 570.027c-0.242-74.365-60.461-134.585-134.804-134.827h-518.423c-74.365 0.242-134.585 60.461-134.827 134.804v202.263c0.242 74.365 60.461 134.585 134.804 134.827h519.703c74.365-0.242 134.585-60.461 134.827-134.804v-0.023l-1.28-202.24z"></path>
</svg>
