<!-- Generated by IcoMoon.io -->
<svg version="1.1" xmlns="http://www.w3.org/2000/svg" width="1024" height="1024" viewBox="0 0 1024 1024">
<path fill="#00bdae" d="M225.426 783.36c0.107 0 0.234 0 0.361 0 41.415 0 78.899-16.832 105.984-44.027l153.605-153.605c5.236-5.010 12.352-8.095 20.187-8.095s14.951 3.084 20.198 8.105l-0.011-0.010 154.185 154.149c27.090 27.201 64.574 44.032 105.989 44.032 0.127 0 0.254 0 0.38 0h30.298l-194.56 194.56c-28.157 28.144-67.049 45.55-110.007 45.55s-81.849-17.406-110.007-45.551l-195.108-195.108h18.505zM786.286 240.091c-0.107 0-0.234 0-0.361 0-41.415 0-78.899 16.832-105.984 44.027l-154.19 154.19c-5.17 5.144-12.298 8.323-20.169 8.323s-14.999-3.18-20.17-8.324l-153.599-153.599c-27.094-27.223-64.592-44.069-106.025-44.069-0.14 0-0.28 0-0.419 0.001h-18.483l195.145-195.072c28.152-28.142 67.037-45.547 109.989-45.547s81.837 17.405 109.989 45.548l194.56 194.523h-30.281zM45.568 401.993l116.151-116.187h63.634c29.050 0.083 55.338 11.844 74.427 30.834l153.595 153.595c13.352 13.304 31.773 21.53 52.114 21.53s38.762-8.226 52.116-21.532l154.22-154.183c19.096-18.984 45.4-30.736 74.448-30.793h75.421l116.773 116.773c28.151 28.148 45.563 67.035 45.563 109.989s-17.412 81.841-45.562 109.989l-116.773 116.736h-75.447c-29.046-0.072-55.333-11.821-74.428-30.798l-154.144-154.144c-13.529-12.925-31.902-20.881-52.133-20.881s-38.604 7.955-52.161 20.908l0.029-0.027-153.6 153.6c-19.822 19.675-46.555 30.72-74.459 30.793h-63.634l-116.151-116.187c-28.151-28.148-45.563-67.035-45.563-109.989s17.412-81.841 45.562-109.989v0z"></path>
</svg>
