<svg xmlns="http://www.w3.org/2000/svg" fill="none" viewBox="0 0 1024 1024">
  <path fill="#00BDAE" d="M254.522 755.782h.325c37.208 0 70.884-15.122 95.217-39.555l138.001-138.005a26.159 26.159 0 0 1 18.137-7.273 26.162 26.162 0 0 1 18.146 7.282l-.01-.009L662.86 716.716c24.338 24.438 58.014 39.56 95.222 39.56h27.562l-174.796 174.8C585.551 956.362 550.61 972 512.016 972c-38.594 0-73.534-15.638-98.832-40.925L237.896 755.782h16.626Zm503.885-488.094h-.324c-37.208 0-70.884 15.123-95.218 39.556l-138.526 138.53a25.608 25.608 0 0 1-18.12 7.478 25.61 25.61 0 0 1-18.121-7.479L350.102 307.774c-24.342-24.458-58.03-39.593-95.254-39.593l-.377.001h-16.605l175.321-175.26C438.479 67.636 473.414 52 512.003 52c38.588 0 73.523 15.637 98.815 40.922L785.614 267.69h-27.205l-.002-.001ZM92.935 413.147 197.287 308.76h57.17c26.099.075 49.716 10.642 66.866 27.703l137.992 137.996c11.996 11.953 28.546 19.343 46.82 19.343 18.275 0 34.824-7.39 46.822-19.345L691.51 335.933c17.157-17.056 40.788-27.615 66.886-27.666h67.759l104.91 104.914C956.357 438.47 972 473.408 972 511.999c0 38.592-15.643 73.529-40.934 98.819l-104.91 104.88h-67.783c-26.095-.065-49.712-10.621-66.867-27.67L553.021 549.539c-12.155-11.613-28.662-18.761-46.837-18.761-18.176 0-34.683 7.147-46.863 18.785l.027-.024-137.997 138a95.266 95.266 0 0 1-66.895 27.665h-57.17L92.934 610.818C67.644 585.528 52 550.591 52 511.999c0-38.591 15.643-73.529 40.934-98.818l.001-.034Z"/>
</svg>
