<svg xmlns="http://www.w3.org/2000/svg" viewBox="0 0 1024 1024">
  <path fill="#00bdae" d="M225.426 783.36h.361c41.415 0 78.899-16.832 105.984-44.027l153.605-153.605c5.236-5.01 12.352-8.095 20.187-8.095s14.951 3.084 20.198 8.105l-.011-.01 154.185 154.149c27.09 27.201 64.574 44.032 105.989 44.032h30.678l-194.56 194.56c-28.157 28.144-67.049 45.55-110.007 45.55s-81.849-17.406-110.007-45.551L206.92 783.36h18.505zm560.86-543.269h-.361c-41.415 0-78.899 16.832-105.984 44.027l-154.19 154.19c-5.17 5.144-12.298 8.323-20.169 8.323s-14.999-3.18-20.17-8.324L331.813 284.708c-27.094-27.223-64.592-44.069-106.025-44.069l-.419.001h-18.483L402.031 45.568C430.183 17.426 469.068.021 512.02.021s81.837 17.405 109.989 45.548l194.56 194.523h-30.281zM45.568 401.993l116.151-116.187h63.634c29.05.083 55.338 11.844 74.427 30.834l153.595 153.595c13.352 13.304 31.773 21.53 52.114 21.53s38.762-8.226 52.116-21.532l154.22-154.183c19.096-18.984 45.4-30.736 74.448-30.793h75.421L978.467 402.03c28.151 28.148 45.563 67.035 45.563 109.989s-17.412 81.841-45.562 109.989L861.695 738.744h-75.447c-29.046-.072-55.333-11.821-74.428-30.798L557.676 553.802c-13.529-12.925-31.902-20.881-52.133-20.881s-38.604 7.955-52.161 20.908l.029-.027-153.6 153.6a106.043 106.043 0 0 1-74.459 30.793h-63.634L45.567 622.008C17.416 593.86.004 554.973.004 512.019s17.412-81.841 45.562-109.989z"/>
</svg>
