<svg version="1.1" xmlns="http://www.w3.org/2000/svg" width="1024" height="1024" viewBox="0 0 1024 1024">
<path fill="currentColor" d="M305.109 134.827c9.167-9.476 21.998-15.359 36.203-15.359s27.036 5.883 36.189 15.345l0.013 0.014 341.333 349.781c20.011 20.48 20.011 53.717 0 74.24l-322.347 330.325c-9.167 9.476-21.998 15.359-36.203 15.359s-27.036-5.883-36.189-15.345l-0.013-0.014c-9.293-9.593-15.021-22.688-15.021-37.12s5.728-27.527 15.035-37.134l-0.014 0.014 286.165-293.248-305.195-312.619c-9.281-9.591-15-22.677-15-37.099s5.72-27.508 15.014-37.113l-0.014 0.015z"></path>
</svg>
