<svg xmlns="http://www.w3.org/2000/svg" viewBox="0 0 1024 1024">
  <path fill="currentColor" d="M305.109 134.827c9.167-9.476 21.998-15.359 36.203-15.359s27.036 5.883 36.189 15.345l.013.014 341.333 349.781c20.011 20.48 20.011 53.717 0 74.24L396.5 889.173c-9.167 9.476-21.998 15.359-36.203 15.359s-27.036-5.883-36.189-15.345l-.013-.014c-9.293-9.593-15.021-22.688-15.021-37.12s5.728-27.527 15.035-37.134l-.014.014L610.26 521.685 305.065 209.066c-9.281-9.591-15-22.677-15-37.099s5.72-27.508 15.014-37.113l-.014.015z"/>
</svg>
