<svg xmlns="http://www.w3.org/2000/svg" fill="none" viewBox="0 0 24 24">
  <path fill="currentColor" d="M11.99 12.673a5.696 5.696 0 1 1 0-11.391 5.696 5.696 0 0 1 0 11.391Zm7.68 10.057H4.307a1.995 1.995 0 0 1-1.536-.698 1.737 1.737 0 0 1-.4-1.407c.7-4.14 4.84-7.263 9.618-7.263 4.78 0 8.92 3.123 9.618 7.263a1.737 1.737 0 0 1-.4 1.407 1.996 1.996 0 0 1-1.536.698Z" opacity=".1"/>
  <path fill="currentColor" d="M12 12.67a5.71 5.71 0 1 1 0-11.418 5.71 5.71 0 0 1 0 11.418Zm0-9.92A4.21 4.21 0 1 0 16.21 7 4.222 4.222 0 0 0 12 2.75Zm7.7 20H4.3a2 2 0 0 1-1.54-.7 1.74 1.74 0 0 1-.4-1.41c.7-4.15 4.85-7.28 9.64-7.28 4.79 0 8.94 3.13 9.64 7.28a1.74 1.74 0 0 1-.4 1.41 2 2 0 0 1-1.54.7ZM12 14.86c-4.07 0-7.58 2.59-8.16 6a.24.24 0 0 0 .06.19.508.508 0 0 0 .4.17h15.4a.51.51 0 0 0 .4-.17.24.24 0 0 0 .06-.19c-.58-3.41-4.09-6-8.16-6Z"/>
</svg>
