<svg xmlns="http://www.w3.org/2000/svg" fill="none" viewBox="0 0 124 40">
  <g clip-path="url(#a)">
    <mask id="b" width="124" height="40" x="0" y="0" maskUnits="userSpaceOnUse" style="mask-type:luminance">
      <path fill="#fff" d="M124 0H0v40h124V0Z"/>
    </mask>
    <g mask="url(#b)">
      <path fill="url(#c)" d="M34.752 5.207V1.35C34.752.605 34.145 0 33.398 0H3.533c-.747 0-1.355.605-1.355 1.353v9.5c0 .747.608 1.354 1.355 1.354h24.21c.358 0 .704-.144.957-.396l5.654-5.645a1.35 1.35 0 0 0 .396-.957l.002-.002Z"/>
      <path fill="#00826A" d="M9.189 25.091H26.95c.748 0 1.355-.605 1.355-1.353v-7.467c0-.746-.604-1.352-1.353-1.352H3.536c-.747 0-1.353.604-1.355 1.35v1.822c0 .36.142.703.396.957l5.655 5.646c.254.254.598.395.957.395v.002ZM84.169 24.89c.351 2.68 2.684 4.614 6.468 4.614 1.769 0 4.026-.596 5.368-1.63a.67.67 0 0 1 .881.043l2.496 2.46a.674.674 0 0 1-.03.988c-2.308 2.033-5.744 3.015-8.803 3.015-7.48 0-11.924-4.615-11.924-11.555 0-6.941 4.489-11.337 11.528-11.337 6.122 0 10.305 3.188 10.964 9.537a.67.67 0 0 1-.195.542l-3.13 3.126a.672.672 0 0 1-.478.196H84.17Zm11.791-4.438c-.351-2.813-2.551-4.22-5.631-4.22-2.905 0-5.28 1.407-6.072 4.22H95.96ZM123.947 13.036l-8.668 20.446a.676.676 0 0 1-.622.412h-4.915a.676.676 0 0 1-.621-.41l-8.71-20.446a.674.674 0 0 1 .622-.938h4.382c.273 0 .518.163.624.415l2.819 6.748 3.343 9.14 3.3-9.053 2.821-6.833a.675.675 0 0 1 .623-.417h4.381c.484 0 .809.492.621.936ZM67.235 29.502c-3.784 0-6.115-1.934-6.468-4.614h13.146c.179 0 .35-.072.476-.197l3.13-3.126a.667.667 0 0 0 .196-.542c-.66-6.349-4.841-9.537-10.964-9.537-6.122 0-10.37 3.636-11.322 8.964h-9.194v-7.747c0-.09.036-.176.1-.238l.904-.904a.338.338 0 0 1 .238-.098h6.766a.676.676 0 0 0 .675-.675V6.775a.675.675 0 0 0-.675-.675h-8.29c-.538 0-1.052.213-1.432.592L41.459 9.75a2.02 2.02 0 0 0-.593 1.43v22.379c0 .186.15.336.337.336h4.692c.186 0 .337-.15.337-.336v-8.671h9.129c.806 5.777 5.072 9.49 11.784 9.49 3.059 0 6.495-.982 8.803-3.015a.677.677 0 0 0 .03-.988l-2.495-2.46a.67.67 0 0 0-.882-.043c-1.34 1.035-3.6 1.63-5.368 1.63h.002Zm-.308-13.27c3.08 0 5.28 1.407 5.631 4.22H60.854c.792-2.813 3.168-4.22 6.073-4.22Z"/>
      <path fill="url(#d)" d="M4.433 40.001h3.354c.54 0 1.055-.213 1.435-.594l2.401-2.397c.382-.381.595-.897.595-1.435v-3.35c0-.539-.213-1.054-.595-1.433l-2.4-2.398a2.032 2.032 0 0 0-1.438-.594H4.431c-.54 0-1.055.213-1.435.594L.595 30.792C.213 31.17 0 31.686 0 32.225v3.35c0 .538.213 1.053.595 1.433l2.4 2.397c.382.382.898.594 1.438.594v.002Z"/>
    </g>
  </g>
  <defs>
    <linearGradient id="c" x1="3.328" x2="32.17" y1="13.2" y2="-3.475" gradientUnits="userSpaceOnUse">
      <stop stop-color="#FAFAFA"/>
      <stop offset="1" stop-color="#00826A"/>
    </linearGradient>
    <linearGradient id="d" x1="1.315" x2="11.829" y1="36.664" y2="30.586" gradientUnits="userSpaceOnUse">
      <stop stop-color="#FAFAFA"/>
      <stop offset="1" stop-color="#00826A"/>
    </linearGradient>
    <clipPath id="a">
      <path fill="#fff" d="M0 0h124v40H0z"/>
    </clipPath>
  </defs>
</svg>
