<svg xmlns="http://www.w3.org/2000/svg" fill="none" viewBox="0 0 35 41">
  <g clip-path="url(#a)">
    <path fill="url(#b)" d="M34.752 5.207V1.35C34.752.605 34.145 0 33.398 0H3.533c-.747 0-1.355.605-1.355 1.353v9.5c0 .747.608 1.354 1.355 1.354h24.21c.358 0 .704-.144.957-.396l5.654-5.645a1.35 1.35 0 0 0 .396-.957l.002-.002Z"/>
    <path fill="#00826A" d="M9.189 25.09H26.95c.748 0 1.355-.604 1.355-1.352v-7.467c0-.746-.604-1.352-1.353-1.352H3.536c-.747 0-1.353.604-1.355 1.35v1.822c0 .36.142.703.396.957l5.655 5.646c.254.254.598.395.957.395v.002Z"/>
    <path fill="url(#c)" d="M4.433 40.001h3.354c.54 0 1.055-.213 1.435-.594l2.401-2.397c.382-.381.595-.897.595-1.435v-3.35c0-.539-.213-1.054-.595-1.433l-2.4-2.398a2.031 2.031 0 0 0-1.438-.594H4.431c-.54 0-1.055.213-1.435.594L.595 30.792C.213 31.17 0 31.686 0 32.225v3.35c0 .538.213 1.053.595 1.433l2.4 2.397c.382.381.898.594 1.438.594v.002Z"/>
  </g>
  <defs>
    <linearGradient id="b" x1="3.328" x2="32.17" y1="13.2" y2="-3.475" gradientUnits="userSpaceOnUse">
      <stop stop-color="#FAFAFA"/>
      <stop offset="1" stop-color="#00826A"/>
    </linearGradient>
    <linearGradient id="c" x1="1.315" x2="11.829" y1="36.664" y2="30.586" gradientUnits="userSpaceOnUse">
      <stop stop-color="#FAFAFA"/>
      <stop offset="1" stop-color="#00826A"/>
    </linearGradient>
    <clipPath id="a">
      <path fill="#fff" d="M0 0h35v41H0z"/>
    </clipPath>
  </defs>
</svg>
