<svg xmlns="http://www.w3.org/2000/svg" fill="none" viewBox="0 0 1217 358">
  <path fill="#fff" fill-rule="evenodd" stroke="#fff" stroke-linejoin="round" stroke-miterlimit="22.926" stroke-width="9.921" d="M269.247 164.803c0 7.776.868 13.459 2.573 16.993 1.731 3.535 4.439 5.316 8.147 5.316 3.819 0 6.602-1.781 8.338-5.316 1.756-3.534 2.622-9.217 2.622-16.993V85.866c0-7.745-.866-13.366-2.57-16.901-1.734-3.503-4.519-5.252-8.39-5.252-3.76 0-6.495 1.75-8.172 5.252-1.705 3.535-2.545 9.156-2.545 16.9v78.938h-.003Zm-50.336-39.514c0-8.603 1.461-17.053 4.41-25.35 2.923-8.295 6.928-15.396 12.016-21.294 5.656-6.546 12.26-11.522 19.839-14.932 7.603-3.413 15.859-5.135 24.789-5.135 17.699 0 32.367 6.363 43.925 19.083 11.581 12.72 17.373 28.606 17.373 47.628 0 19.144-5.792 35.088-17.373 47.843-11.558 12.752-26.226 19.114-43.925 19.114-7.767 0-15.074-1.323-21.922-3.965a55.334 55.334 0 0 1-18.269-11.524c-6.468-5.993-11.558-13.613-15.263-22.799-3.733-9.219-5.6-18.774-5.6-28.669Zm44.383-76.694 22.139-26.734c2.733-3.258 5.006-5.47 6.819-6.668 1.789-1.2 3.602-1.813 5.467-1.813 2.493 0 4.578.954 6.252 2.825 1.707 1.908 2.543 4.21 2.543 6.918 0 2.15-.621 4.053-1.894 5.712-1.272 1.63-3.409 3.32-6.441 4.978l-25.761 14.78-9.124.002Zm151.422 140.146 38.35-107.298c2.056-5.656 4.168-9.677 6.305-12.077 2.137-2.395 4.68-3.594 7.658-3.594h.95v-4.948h-30.99v4.948c3.844.184 6.686 1.013 8.469 2.518 1.789 1.509 2.706 3.78 2.706 6.852 0 .892-.108 1.874-.326 2.95-.213 1.106-.539 2.275-.947 3.537l-23.708 67.32-28.469-83.177h15.615v-4.948h-71.584v4.948h9.122l41.866 122.969h24.983ZM574.368 60.824v44.183h-4.843c-2.953-13.855-7.47-23.872-13.505-30.017-6.065-6.147-14.452-9.218-25.197-9.218h-6.495v55.092h.487c6.552 0 11.583-2.058 15.075-6.204 3.491-4.149 5.628-10.541 6.414-19.176h4.682v55.986h-4.682c-.838-8.635-3.005-15.024-6.495-19.175-3.49-4.147-8.499-6.204-14.994-6.204h-.487v57.337h8.795c9.963 0 18.051-3.565 24.358-10.725 6.28-7.128 11.042-18.16 14.262-33.031h4.927v49.071H465.114v-5.315h12.288V65.77h-12.288v-4.948l109.254.002Zm13.457 127.917v-5.316h14.343V65.77h-14.343v-4.948h74.343v4.948h-14.261v117.655h14.261v5.316h-74.343Zm87.338 3.505h-3.732c.269-5.227.43-9.129.514-11.71.084-2.58.136-4.948.136-7.098 0-2.765-.109-6.453-.326-11.062-.218-4.641-.46-9.924-.784-15.854h4.516c5.036 12.476 11.477 22.277 19.379 29.437 7.903 7.126 16.05 10.693 24.467 10.693 5.437 0 9.58-1.169 12.447-3.471 2.842-2.307 4.279-5.685 4.279-10.11 0-6.177-6.74-12.694-20.218-19.543-1.274-.646-2.246-1.169-2.951-1.505-15.911-8.297-26.767-16.13-32.585-23.508-5.817-7.373-8.713-16.377-8.713-27.008 0-12.904 3.599-23.261 10.771-31.126 7.2-7.867 16.644-11.8 28.309-11.8 4.247 0 8.308.614 12.231 1.844 3.898 1.228 7.9 3.134 11.959 5.712l17.784-7.559h3.247c0 3.012-.054 6.18-.163 9.555a40.576 40.576 0 0 0-.079 1.693c0 5.47.136 10.695.405 15.73.27 5.01.624 10.205 1.111 15.611h-4.519c-5.439-11.832-11.638-20.957-18.566-27.378-6.928-6.421-14.019-9.616-21.244-9.616-4.818 0-8.607 1.167-11.37 3.503-2.731 2.334-4.111 5.528-4.111 9.557 0 6.113 7.957 13.364 23.871 21.786 2.543 1.319 4.49 2.331 5.872 3.041 13.856 7.497 23.572 14.87 29.147 22.091 5.575 7.253 8.362 15.732 8.362 25.536 0 12.784-3.818 23.046-11.422 30.849-7.603 7.806-17.7 11.71-30.282 11.71-5.033 0-9.824-.646-14.371-1.937-4.548-1.289-9.554-3.469-15.048-6.546l-18.323 8.483ZM246.636 334.948v-5.126h14.509V216.425h-14.509v-4.767h75.212v4.767h-14.427v113.397h14.427v5.126h-75.212Zm101.385-18.834c0 5.624 1.04 9.299 3.094 11.078 2.053 1.745 6.298 2.633 12.705 2.633v5.125h-36.662v-5.125c5.887 0 9.829-.891 11.827-2.694 1.999-1.774 3.012-5.447 3.012-11.015v-99.687h-14.212v-4.767h61.141l16.455 51.706 16.592-51.706h61.439v4.767h-13.004v113.398h13.004v5.125h-72.583v-5.125h13.306v-105.25l-35.373 110.375h-6.57l-34.171-110.021v91.183Zm194.507-4.235c0 7.493.879 12.972 2.6 16.38 1.751 3.403 4.491 5.121 8.242 5.121 3.86 0 6.681-1.718 8.438-5.121 1.774-3.408 2.651-8.887 2.651-16.38v-76.081c0-7.466-.877-12.884-2.597-16.289-1.752-3.376-4.574-5.062-8.49-5.062-3.807 0-6.57 1.686-8.267 5.062-1.725 3.407-2.575 8.825-2.575 16.289l-.002 76.081ZM491.6 273.793c0-8.293 1.478-16.441 4.467-24.432 2.955-7.996 7.007-14.839 12.154-20.526 5.722-6.306 12.403-11.105 20.068-14.393 7.694-3.287 16.045-4.948 25.079-4.948 17.906 0 32.746 6.131 44.44 18.391 11.716 12.263 17.575 27.571 17.575 45.906 0 18.451-5.859 33.82-17.575 46.109-11.694 12.29-26.534 18.424-44.44 18.424-7.857 0-15.25-1.276-22.176-3.82-6.928-2.549-13.088-6.25-18.479-11.107-6.548-5.776-11.694-13.122-15.443-21.977-3.78-8.882-5.67-18.09-5.67-27.627Zm151.688 42.498c0 5.624 1.013 9.299 3.039 11.078 2.026 1.747 6.268 2.632 12.675 2.632v4.949h-37.781v-4.949h1.203c5.888 0 9.8-.885 11.798-2.632 1.972-1.779 2.96-5.452 2.96-11.078v-99.864h-15.961v-4.767h61.901l44.85 66.987v-48.33c0-5.688-1.013-9.419-3.012-11.196-1.999-1.806-5.969-2.694-11.911-2.694h-.959v-4.767h37.786v4.767h-.959c-5.888 0-9.829.891-11.83 2.694-1.996 1.777-3.012 5.511-3.012 11.196v104.631h-25.106l-65.681-98.471v79.814ZM866.839 211.66v42.586h-4.899c-2.983-13.357-7.558-23.012-13.664-28.935-6.132-5.925-14.62-8.886-25.489-8.886h-6.57v53.102h.492c6.627 0 11.721-1.983 15.25-5.984 3.533-3.997 5.697-10.156 6.49-18.476h4.737v53.956h-4.737c-.849-8.32-3.041-14.481-6.572-18.475-3.531-4.002-8.596-5.984-15.168-5.984h-.492v55.261h8.9c10.074 0 18.262-3.435 24.639-10.335 6.355-6.872 11.175-17.503 14.43-31.837h4.983v47.295H756.31v-5.126h12.428V216.425H756.31v-4.767h110.529v.002Zm113.354 123.288h-77.814v-5.126h15.085V216.425c-7.336.535-13.8 4.146-19.411 10.842-5.614 6.722-9.691 15.693-12.265 26.977h-3.615v-42.586H1000.4v42.586h-3.616c-2.574-11.284-6.654-20.255-12.265-26.977-5.616-6.696-12.075-10.307-19.411-10.842v113.397h15.085v5.126Zm122.877 0h-77.81v-5.126h15.08V216.425c-7.33.535-13.79 4.146-19.41 10.842-5.61 6.722-9.69 15.693-12.26 26.977h-3.62v-42.586h118.23v42.586h-3.62c-2.57-11.284-6.65-20.255-12.26-26.977-5.62-6.696-12.08-10.307-19.41-10.842v113.397h15.08v5.126Zm26.94 0v-5.126h14.51V216.425h-14.51v-4.767h75.21v4.767h-14.42v113.397h14.42v5.126h-75.21ZM37.917 186.765c0 6.712 1.274 11.089 3.779 13.208 2.508 2.084 7.696 3.142 15.524 3.142v6.109H12.426v-6.109c7.193 0 12.012-1.058 14.452-3.213 2.441-2.12 3.68-6.496 3.68-13.137V67.9H13.198v-5.687h74.697l20.104 61.657 20.274-61.657h75.065V67.9h-15.889v135.215h15.889v6.109h-88.68v-6.109h16.258V77.611l-43.22 131.613h-8.028L37.917 78.033v108.732Z" clip-rule="evenodd"/>
  <path fill="#fff" fill-rule="evenodd" stroke="#fff" stroke-linejoin="round" stroke-miterlimit="22.926" stroke-width="9.921" d="M92.52 346.043h-6.16c.444-6.337.713-11.077.847-14.209.134-3.131.222-6.004.222-8.612 0-3.358-.177-7.833-.535-13.427-.353-5.633-.757-12.05-1.291-19.246h7.456c8.301 15.145 18.925 27.04 31.963 35.732 13.034 8.651 26.473 12.976 40.356 12.976 8.973 0 15.801-1.416 20.535-4.212 4.689-2.796 7.053-6.899 7.053-12.272 0-7.497-11.114-15.401-33.346-23.721-2.101-.779-3.708-1.416-4.866-1.824-26.248-10.071-44.147-19.583-53.747-28.535-9.598-8.948-14.376-19.874-14.376-32.78 0-15.666 5.936-28.234 17.768-37.783 11.873-9.548 27.454-14.322 46.695-14.322 7.012 0 13.704.748 20.179 2.239 6.427 1.491 13.036 3.806 19.728 6.94l29.33-9.179h5.356c0 3.657-.089 7.498-.268 11.599-.088 1.085-.133 1.751-.133 2.053 0 6.639.222 12.978.668 19.096a387.213 387.213 0 0 0 1.834 18.945h-7.457c-8.974-14.359-19.195-25.437-30.624-33.231-11.429-7.792-23.123-11.674-35.044-11.674-7.948 0-14.196 1.419-18.749 4.253-4.507 2.835-6.785 6.714-6.785 11.599 0 7.421 13.126 16.223 39.372 26.442 4.197 1.607 7.411 2.833 9.689 3.691 22.855 9.104 38.88 18.052 48.079 26.819 9.197 8.802 13.793 19.096 13.793 30.992 0 15.516-6.294 27.973-18.84 37.442-12.544 9.476-29.197 14.209-49.951 14.209-8.304 0-16.207-.784-23.708-2.349-7.499-1.566-15.758-4.213-24.818-7.944l-30.226 10.293Z" clip-rule="evenodd"/>
  <path fill="#DE181E" fill-rule="evenodd" d="M269.247 164.803c0 7.776.868 13.459 2.573 16.993 1.731 3.535 4.439 5.316 8.147 5.316 3.819 0 6.602-1.781 8.338-5.316 1.756-3.534 2.622-9.217 2.622-16.993V85.866c0-7.745-.866-13.366-2.57-16.901-1.734-3.503-4.519-5.252-8.39-5.252-3.76 0-6.495 1.75-8.172 5.252-1.705 3.535-2.545 9.156-2.545 16.9v78.938h-.003Zm-50.336-39.514c0-8.603 1.461-17.053 4.41-25.35 2.923-8.295 6.928-15.396 12.016-21.294 5.656-6.546 12.26-11.522 19.839-14.932 7.603-3.413 15.859-5.135 24.789-5.135 17.699 0 32.367 6.363 43.925 19.083 11.581 12.72 17.373 28.606 17.373 47.628 0 19.144-5.792 35.088-17.373 47.843-11.558 12.752-26.226 19.114-43.925 19.114-7.767 0-15.074-1.323-21.922-3.965a55.334 55.334 0 0 1-18.269-11.524c-6.468-5.993-11.558-13.613-15.263-22.799-3.733-9.219-5.6-18.774-5.6-28.669Zm44.383-76.694 22.139-26.734c2.733-3.258 5.006-5.47 6.819-6.668 1.789-1.2 3.602-1.813 5.467-1.813 2.493 0 4.578.954 6.252 2.825 1.707 1.908 2.543 4.21 2.543 6.918 0 2.15-.621 4.053-1.894 5.712-1.272 1.63-3.409 3.32-6.441 4.978l-25.761 14.78-9.124.002Zm151.422 140.146 38.35-107.298c2.056-5.656 4.168-9.677 6.305-12.077 2.137-2.395 4.68-3.594 7.658-3.594h.95v-4.948h-30.99v4.948c3.844.184 6.686 1.013 8.469 2.518 1.789 1.509 2.706 3.78 2.706 6.852 0 .892-.108 1.874-.326 2.95-.213 1.106-.539 2.275-.947 3.537l-23.708 67.32-28.469-83.177h15.615v-4.948h-71.584v4.948h9.122l41.866 122.969h24.983ZM574.368 60.824v44.183h-4.843c-2.953-13.855-7.47-23.872-13.505-30.017-6.065-6.147-14.452-9.218-25.197-9.218h-6.495v55.092h.487c6.552 0 11.583-2.058 15.075-6.204 3.491-4.149 5.628-10.541 6.414-19.176h4.682v55.986h-4.682c-.838-8.635-3.005-15.024-6.495-19.175-3.49-4.147-8.499-6.204-14.994-6.204h-.487v57.337h8.795c9.963 0 18.051-3.565 24.358-10.725 6.28-7.128 11.042-18.16 14.262-33.031h4.927v49.071H465.114v-5.315h12.288V65.77h-12.288v-4.948l109.254.002Zm13.457 127.917v-5.316h14.343V65.77h-14.343v-4.948h74.343v4.948h-14.261v117.655h14.261v5.316h-74.343Zm87.338 3.505h-3.732c.269-5.227.43-9.129.514-11.71.084-2.58.136-4.948.136-7.098 0-2.765-.109-6.453-.326-11.062-.218-4.641-.46-9.924-.784-15.854h4.516c5.036 12.476 11.477 22.277 19.379 29.437 7.903 7.126 16.05 10.693 24.467 10.693 5.437 0 9.58-1.169 12.447-3.471 2.842-2.307 4.279-5.685 4.279-10.11 0-6.177-6.74-12.694-20.218-19.543-1.274-.646-2.246-1.169-2.951-1.505-15.911-8.297-26.767-16.13-32.585-23.508-5.817-7.373-8.713-16.377-8.713-27.008 0-12.904 3.599-23.261 10.771-31.126 7.2-7.867 16.644-11.8 28.309-11.8 4.247 0 8.308.614 12.231 1.844 3.898 1.228 7.9 3.134 11.959 5.712l17.784-7.559h3.247c0 3.012-.054 6.18-.163 9.555a40.576 40.576 0 0 0-.079 1.693c0 5.47.136 10.695.405 15.73.27 5.01.624 10.205 1.111 15.611h-4.519c-5.439-11.832-11.638-20.957-18.566-27.378-6.928-6.421-14.019-9.616-21.244-9.616-4.818 0-8.607 1.167-11.37 3.503-2.731 2.334-4.111 5.528-4.111 9.557 0 6.113 7.957 13.364 23.871 21.786 2.543 1.319 4.49 2.331 5.872 3.041 13.856 7.497 23.572 14.87 29.147 22.091 5.575 7.253 8.362 15.732 8.362 25.536 0 12.784-3.818 23.046-11.422 30.849-7.603 7.806-17.7 11.71-30.282 11.71-5.033 0-9.824-.646-14.371-1.937-4.548-1.289-9.554-3.469-15.048-6.546l-18.323 8.483ZM246.636 334.948v-5.126h14.509V216.425h-14.509v-4.767h75.212v4.767h-14.427v113.397h14.427v5.126h-75.212Zm101.385-18.834c0 5.624 1.04 9.299 3.094 11.078 2.053 1.745 6.298 2.633 12.705 2.633v5.125h-36.662v-5.125c5.887 0 9.829-.891 11.827-2.694 1.999-1.774 3.012-5.447 3.012-11.015v-99.687h-14.212v-4.767h61.141l16.455 51.706 16.592-51.706h61.439v4.767h-13.004v113.398h13.004v5.125h-72.583v-5.125h13.306v-105.25l-35.373 110.375h-6.57l-34.171-110.021v91.183Zm194.507-4.235c0 7.493.879 12.972 2.6 16.38 1.751 3.403 4.491 5.121 8.242 5.121 3.86 0 6.681-1.718 8.438-5.121 1.774-3.408 2.651-8.887 2.651-16.38v-76.081c0-7.466-.877-12.884-2.597-16.289-1.752-3.376-4.574-5.062-8.49-5.062-3.807 0-6.57 1.686-8.267 5.062-1.725 3.407-2.575 8.825-2.575 16.289l-.002 76.081ZM491.6 273.793c0-8.293 1.478-16.441 4.467-24.432 2.955-7.996 7.007-14.839 12.154-20.526 5.722-6.306 12.403-11.105 20.068-14.393 7.694-3.287 16.045-4.948 25.079-4.948 17.906 0 32.746 6.131 44.44 18.391 11.716 12.263 17.575 27.571 17.575 45.906 0 18.451-5.859 33.82-17.575 46.109-11.694 12.29-26.534 18.424-44.44 18.424-7.857 0-15.25-1.276-22.176-3.82-6.928-2.549-13.088-6.25-18.479-11.107-6.548-5.776-11.694-13.122-15.443-21.977-3.78-8.882-5.67-18.09-5.67-27.627Zm151.688 42.498c0 5.624 1.013 9.299 3.039 11.078 2.026 1.747 6.268 2.632 12.675 2.632v4.949h-37.781v-4.949h1.203c5.888 0 9.8-.885 11.798-2.632 1.972-1.779 2.96-5.452 2.96-11.078v-99.864h-15.961v-4.767h61.901l44.85 66.987v-48.33c0-5.688-1.013-9.419-3.012-11.196-1.999-1.806-5.969-2.694-11.911-2.694h-.959v-4.767h37.786v4.767h-.959c-5.888 0-9.829.891-11.83 2.694-1.996 1.777-3.012 5.511-3.012 11.196v104.631h-25.106l-65.681-98.471v79.814ZM866.839 211.66v42.586h-4.899c-2.983-13.357-7.558-23.012-13.664-28.935-6.132-5.925-14.62-8.886-25.489-8.886h-6.57v53.102h.492c6.627 0 11.721-1.983 15.25-5.984 3.533-3.997 5.697-10.156 6.49-18.476h4.737v53.956h-4.737c-.849-8.32-3.041-14.481-6.572-18.475-3.531-4.002-8.596-5.984-15.168-5.984h-.492v55.261h8.9c10.074 0 18.262-3.435 24.639-10.335 6.355-6.872 11.175-17.503 14.43-31.837h4.983v47.295H756.31v-5.126h12.428V216.425H756.31v-4.767h110.529v.002Zm113.354 123.288h-77.814v-5.126h15.085V216.425c-7.336.535-13.8 4.146-19.411 10.842-5.614 6.722-9.691 15.693-12.265 26.977h-3.615v-42.586H1000.4v42.586h-3.616c-2.574-11.284-6.654-20.255-12.265-26.977-5.616-6.696-12.075-10.307-19.411-10.842v113.397h15.085v5.126Zm122.877 0h-77.81v-5.126h15.08V216.425c-7.33.535-13.79 4.146-19.41 10.842-5.61 6.722-9.69 15.693-12.26 26.977h-3.62v-42.586h118.23v42.586h-3.62c-2.57-11.284-6.65-20.255-12.26-26.977-5.62-6.696-12.08-10.307-19.41-10.842v113.397h15.08v5.126Zm26.94 0v-5.126h14.51V216.425h-14.51v-4.767h75.21v4.767h-14.42v113.397h14.42v5.126h-75.21ZM37.917 186.765c0 6.712 1.274 11.089 3.779 13.208 2.508 2.084 7.696 3.142 15.524 3.142v6.109H12.426v-6.109c7.193 0 12.012-1.058 14.452-3.213 2.441-2.12 3.68-6.496 3.68-13.137V67.9H13.198v-5.687h74.697l20.104 61.657 20.274-61.657h75.065V67.9h-15.889v135.215h15.889v6.109h-88.68v-6.109h16.258V77.611l-43.22 131.613h-8.028L37.917 78.033v108.732Z" clip-rule="evenodd"/>
  <path fill="#DE181E" fill-rule="evenodd" d="M92.52 346.043h-6.16c.444-6.337.713-11.077.847-14.209.134-3.131.222-6.004.222-8.612 0-3.358-.177-7.833-.535-13.427-.353-5.633-.757-12.05-1.291-19.246h7.456c8.301 15.145 18.925 27.04 31.963 35.732 13.034 8.651 26.473 12.976 40.356 12.976 8.973 0 15.801-1.416 20.535-4.212 4.689-2.796 7.053-6.899 7.053-12.272 0-7.497-11.114-15.401-33.346-23.721-2.101-.779-3.708-1.416-4.866-1.824-26.248-10.071-44.147-19.583-53.747-28.535-9.598-8.948-14.376-19.874-14.376-32.78 0-15.666 5.936-28.234 17.768-37.783 11.873-9.548 27.454-14.322 46.695-14.322 7.012 0 13.704.748 20.179 2.239 6.427 1.491 13.036 3.806 19.728 6.94l29.33-9.179h5.356c0 3.657-.089 7.498-.268 11.599-.088 1.085-.133 1.751-.133 2.053 0 6.639.222 12.978.668 19.096a387.213 387.213 0 0 0 1.834 18.945h-7.457c-8.974-14.359-19.195-25.437-30.624-33.231-11.429-7.792-23.123-11.674-35.044-11.674-7.948 0-14.196 1.419-18.749 4.253-4.507 2.835-6.785 6.714-6.785 11.599 0 7.421 13.126 16.223 39.372 26.442 4.197 1.607 7.411 2.833 9.689 3.691 22.855 9.104 38.88 18.052 48.079 26.819 9.197 8.802 13.793 19.096 13.793 30.992 0 15.516-6.294 27.973-18.84 37.442-12.544 9.476-29.197 14.209-49.951 14.209-8.304 0-16.207-.784-23.708-2.349-7.499-1.566-15.758-4.213-24.818-7.944l-30.226 10.293Z" clip-rule="evenodd"/>
</svg>
