<svg xmlns="http://www.w3.org/2000/svg" fill="none" viewBox="0 0 239 295">
  <g fill-rule="evenodd" clip-path="url(#a)" clip-rule="evenodd">
    <path fill="#fff" stroke="#fff" stroke-linejoin="round" stroke-miterlimit="22.926" stroke-width="9.921" d="M30.917 129.765c0 6.712 1.274 11.089 3.778 13.208 2.509 2.084 7.696 3.142 15.524 3.142v6.109H5.426v-6.109c7.193 0 12.011-1.058 14.452-3.213 2.44-2.12 3.68-6.496 3.68-13.137V10.9H6.196V5.213h74.697l20.105 61.658 20.274-61.658h75.064V10.9h-15.889v135.215h15.889v6.109h-88.68v-6.109h16.258V20.611l-43.22 131.613h-8.027L30.917 21.033v108.732Z"/>
    <path fill="#fff" stroke="#fff" stroke-linejoin="round" stroke-miterlimit="22.926" stroke-width="9.921" d="M85.52 289.043h-6.16c.444-6.337.713-11.077.847-14.209.134-3.131.222-6.004.222-8.612 0-3.358-.177-7.833-.535-13.427-.353-5.633-.757-12.05-1.291-19.246h7.456c8.301 15.145 18.925 27.04 31.963 35.732 13.034 8.651 26.473 12.976 40.356 12.976 8.973 0 15.801-1.416 20.535-4.212 4.689-2.796 7.053-6.899 7.053-12.272 0-7.497-11.114-15.401-33.346-23.721-2.101-.779-3.708-1.416-4.866-1.824-26.248-10.071-44.147-19.583-53.747-28.535-9.598-8.948-14.376-19.874-14.376-32.78 0-15.666 5.936-28.234 17.768-37.783 11.873-9.548 27.454-14.322 46.695-14.322 7.012 0 13.704.748 20.179 2.239 6.427 1.491 13.036 3.806 19.728 6.94l29.33-9.179h5.356c0 3.657-.089 7.498-.268 11.599-.088 1.085-.133 1.751-.133 2.053 0 6.639.222 12.978.668 19.096a387.213 387.213 0 0 0 1.834 18.945h-7.457c-8.974-14.359-19.195-25.437-30.624-33.231-11.429-7.792-23.123-11.674-35.044-11.674-7.948 0-14.196 1.419-18.749 4.253-4.507 2.835-6.785 6.714-6.785 11.599 0 7.421 13.126 16.223 39.372 26.442 4.197 1.607 7.411 2.833 9.689 3.691 22.855 9.104 38.88 18.052 48.079 26.819 9.197 8.802 13.793 19.096 13.793 30.992 0 15.516-6.294 27.973-18.84 37.442-12.544 9.476-29.197 14.209-49.951 14.209-8.304 0-16.207-.784-23.708-2.349-7.499-1.566-15.758-4.213-24.818-7.944l-30.226 10.293Z"/>
    <path fill="#DE181E" d="M30.917 129.765c0 6.712 1.274 11.089 3.778 13.208 2.509 2.084 7.696 3.142 15.524 3.142v6.109H5.426v-6.109c7.193 0 12.011-1.058 14.452-3.213 2.44-2.12 3.68-6.496 3.68-13.137V10.9H6.196V5.213h74.697l20.105 61.658 20.274-61.658h75.064V10.9h-15.889v135.215h15.889v6.109h-88.68v-6.109h16.258V20.611l-43.22 131.613h-8.027L30.917 21.033v108.732Z"/>
    <path fill="#DE181E" d="M85.52 289.043h-6.16c.444-6.337.713-11.077.847-14.209.134-3.131.222-6.004.222-8.612 0-3.358-.177-7.833-.535-13.427-.353-5.633-.757-12.05-1.291-19.246h7.456c8.301 15.145 18.925 27.04 31.963 35.732 13.034 8.651 26.473 12.976 40.356 12.976 8.973 0 15.801-1.416 20.535-4.212 4.689-2.796 7.053-6.899 7.053-12.272 0-7.497-11.114-15.401-33.346-23.721-2.101-.779-3.708-1.416-4.866-1.824-26.248-10.071-44.147-19.583-53.747-28.535-9.598-8.948-14.376-19.874-14.376-32.78 0-15.666 5.936-28.234 17.768-37.783 11.873-9.548 27.454-14.322 46.695-14.322 7.012 0 13.704.748 20.179 2.239 6.427 1.491 13.036 3.806 19.728 6.94l29.33-9.179h5.356c0 3.657-.089 7.498-.268 11.599-.088 1.085-.133 1.751-.133 2.053 0 6.639.222 12.978.668 19.096a387.213 387.213 0 0 0 1.834 18.945h-7.457c-8.974-14.359-19.195-25.437-30.624-33.231-11.429-7.792-23.123-11.674-35.044-11.674-7.948 0-14.196 1.419-18.749 4.253-4.507 2.835-6.785 6.714-6.785 11.599 0 7.421 13.126 16.223 39.372 26.442 4.197 1.607 7.411 2.833 9.689 3.691 22.855 9.104 38.88 18.052 48.079 26.819 9.197 8.802 13.793 19.096 13.793 30.992 0 15.516-6.294 27.973-18.84 37.442-12.544 9.476-29.197 14.209-49.951 14.209-8.304 0-16.207-.784-23.708-2.349-7.499-1.566-15.758-4.213-24.818-7.944l-30.226 10.293Z"/>
  </g>
  <defs>
    <clipPath id="a">
      <path fill="#fff" d="M0 0h239v295H0z"/>
    </clipPath>
  </defs>
</svg>
